# xmcd CD database file
#
# Track frame offsets:
#	150
#	21755
#	29322
#
# Disc length: 644 seconds
#
# Revision: 0
# Processed by: cddbd v1.5.1PL0 Copyright (c) Steve Scherf et al.
# Submitted via: CDex 1.51
#
DISCID=19028203
DTITLE=Studio Aurora - 光り舞う翠
DYEAR=1900
DGENRE=環境音楽
TTITLE0=光り舞う翠
TTITLE1=十月の空
TTITLE2=西からの贈り物
EXTD=
EXTT0=
EXTT1=
EXTT2=
PLAYORDER=
